<svg xmlns="http://www.w3.org/2000/svg" width="1200" height="630" viewBox="0 0 1200 630">
  <defs>
    <linearGradient id="bg" x1="0" y1="0" x2="1" y2="1">
      <stop offset="0" stop-color="#0A2D42"/>
      <stop offset="0.58" stop-color="#10405D"/>
      <stop offset="1" stop-color="#1B1C1C"/>
    </linearGradient>
  </defs>
  <rect width="1200" height="630" fill="url(#bg)"/>
  <rect x="64" y="64" width="1072" height="502" rx="32" fill="none" stroke="#1CC3AF" stroke-opacity="0.38" stroke-width="3"/>
  <g transform="translate(96 118)">
    <rect width="132" height="132" rx="28" fill="#F6F6F6"/>
    <rect x="59" y="20" width="16" height="92" rx="4" fill="#10405D"/>
    <rect x="30" y="45" width="74" height="16" rx="4" fill="#10405D"/>
    <rect x="59" y="61" width="16" height="51" rx="4" fill="#1CC3AF"/>
  </g>
  <rect x="278" y="126" width="520" height="22" rx="11" fill="#1CC3AF"/>
  <rect x="100" y="286" width="650" height="42" rx="21" fill="#ffffff"/>
  <rect x="100" y="362" width="470" height="28" rx="14" fill="#F6F6F6" fill-opacity="0.86"/>
  <rect x="100" y="472" width="720" height="24" rx="12" fill="#ffffff" fill-opacity="0.55"/>
  <rect x="100" y="520" width="292" height="6" rx="3" fill="#C4922A"/>
  <circle cx="1000" cy="132" r="54" fill="#1CC3AF" fill-opacity="0.16"/>
  <circle cx="1034" cy="494" r="82" fill="#C4922A" fill-opacity="0.18"/>
  <rect x="884" y="252" width="156" height="156" rx="34" fill="#F6F6F6" fill-opacity="0.12" stroke="#1CC3AF" stroke-opacity="0.3" stroke-width="3"/>
</svg>
